<svg width="1440" height="2059" viewBox="0 0 1440 2059" fill="none" xmlns="http://www.w3.org/2000/svg">
<g filter="url(#filter0_f_1156_32215)">
<path d="M1036.24 1545.93C1100.47 1601.07 1186.85 1648.51 1295.83 1664.26C1404.68 1680.03 1536.12 1664.1 1623.19 1603.44C1710.38 1542.74 1753.19 1437.31 1781.07 1339.99C1809.08 1242.63 1822.17 1153.48 1806.31 1066.8C1790.35 980.266 1745.46 896.295 1664.74 852.691C1584.06 809.189 1467.45 806.183 1341.07 802.597C1214.66 798.913 1078.5 794.741 988.42 848.11C898.5 901.537 854.823 1012.56 845.652 1108.38C836.609 1204.17 862.078 1284.76 895.95 1356.38C929.823 1428 971.894 1490.83 1036.25 1545.93" fill="#0CA0D0"/>
</g>
<path d="M1313.63 446.212C1293.16 394.634 1268.28 342.795 1230.29 298.242C1182.01 241.607 1133.03 230.326 1072.95 264.071C1054.18 274.61 1035.29 286.726 1020.32 301.931C967.388 355.714 915.899 410.923 864.288 466.004C833.394 498.991 804.072 533.485 772.634 565.94C710.261 630.294 630.558 663.862 547.103 690.599C459.806 718.561 369.294 737.433 287.153 780.25C209.004 820.987 139.974 872.44 96.2826 951.413C51.8382 1031.72 56.5041 1111.68 100.538 1190.84C159.421 1296.7 250.027 1354.13 370.109 1358.63C508.649 1363.84 647.635 1369.35 786.017 1364.04C922.532 1358.79 1050.53 1313.76 1165.24 1239.08C1310.91 1144.23 1379.12 1004.21 1386.6 832.906C1391.82 713.643 1371.35 598.407 1328.31 487.106C1323.38 474.359 1319.06 461.397 1313.64 446.231L1313.63 446.212Z" fill="url(#paint0_linear_1156_32215)"/>
<defs>
<filter id="filter0_f_1156_32215" x="43.8115" y="0.644531" width="2569.33" height="2469.31" filterUnits="userSpaceOnUse" color-interpolation-filters="sRGB">
<feFlood flood-opacity="0" result="BackgroundImageFix"/>
<feBlend mode="normal" in="SourceGraphic" in2="BackgroundImageFix" result="shape"/>
<feGaussianBlur stdDeviation="400" result="effect1_foregroundBlur_1156_32215"/>
</filter>
<linearGradient id="paint0_linear_1156_32215" x1="414.535" y1="1924.55" x2="587.218" y2="38.1606" gradientUnits="userSpaceOnUse">
<stop stop-color="#A6FFD6" stop-opacity="0.6"/>
<stop offset="1" stop-color="#BBEBD5" stop-opacity="0"/>
</linearGradient>
</defs>
</svg>
